<?xml version="1.0" standalone="no"?>
<!DOCTYPE svg PUBLIC "-//W3C//DTD SVG 20010904//EN"
 "http://www.w3.org/TR/2001/REC-SVG-20010904/DTD/svg10.dtd">
<svg version="1.0" xmlns="http://www.w3.org/2000/svg"
 width="73.000000pt" height="144.000000pt" viewBox="0 0 73.000000 144.000000"
 preserveAspectRatio="xMidYMid meet">

<g transform="translate(0.000000,144.000000) scale(0.100000,-0.100000)"
fill="#000000" stroke="none">
<path d="M476 1085 c-3 -8 -1 -25 4 -37 7 -20 8 -17 8 15 -1 41 -3 44 -12 22z"/>
<path d="M683 1033 c-3 -10 -8 -22 -10 -28 -3 -5 3 -1 11 9 16 20 21 36 11 36
-3 0 -8 -8 -12 -17z"/>
<path d="M355 979 c-4 -6 -5 -12 -2 -15 2 -3 7 2 10 11 7 17 1 20 -8 4z"/>
<path d="M493 940 c0 -30 2 -43 4 -27 2 15 2 39 0 55 -2 15 -4 2 -4 -28z"/>
<path d="M513 885 c-41 -39 -44 -66 -4 -33 15 13 27 25 25 27 -2 2 1 10 8 18
21 26 3 18 -29 -12z"/>
<path d="M202 790 c0 -14 2 -19 5 -12 2 6 2 18 0 25 -3 6 -5 1 -5 -13z"/>
<path d="M380 793 c0 -5 5 -15 10 -23 8 -12 10 -11 10 8 0 12 -4 22 -10 22 -5
0 -10 -3 -10 -7z"/>
<path d="M400 689 c0 -5 5 -7 10 -4 6 3 10 8 10 11 0 2 -4 4 -10 4 -5 0 -10
-5 -10 -11z"/>
<path d="M492 590 c-21 -18 -22 -19 -3 -17 11 1 23 8 26 16 8 21 2 21 -23 1z"/>
<path d="M280 583 c0 -15 -2 -16 -10 -3 -5 8 -10 10 -10 4 0 -5 7 -19 15 -30
14 -18 14 -17 15 14 0 17 -2 32 -5 32 -3 0 -5 -8 -5 -17z"/>
<path d="M306 505 c-3 -9 -6 -22 -5 -28 0 -7 5 -1 10 12 5 13 8 26 5 28 -2 2
-6 -3 -10 -12z"/>
<path d="M286 426 c-4 -21 -5 -41 -2 -44 3 -3 6 0 6 6 0 7 15 21 33 32 22 14
27 20 14 20 -11 0 -16 5 -12 13 4 6 0 4 -8 -6 -15 -18 -15 -18 -19 0 -2 11 -7
3 -12 -21z"/>
<path d="M272 300 c0 -19 2 -27 5 -17 2 9 2 25 0 35 -3 9 -5 1 -5 -18z"/>
<path d="M247 275 c-3 -7 3 -24 13 -37 l19 -23 1 23 c0 13 -6 22 -15 22 -9 0
-12 6 -9 15 4 8 4 15 1 15 -3 0 -7 -7 -10 -15z"/>
<path d="M124 182 c8 -16 23 -35 33 -43 12 -10 11 -5 -5 15 -12 16 -22 35 -22
42 0 8 -5 14 -10 14 -6 0 -4 -12 4 -28z"/>
<path d="M281 179 c1 -8 4 -24 7 -36 7 -21 7 -21 26 5 11 14 13 22 6 17 -8 -5
-18 -1 -27 10 -9 13 -13 15 -12 4z"/>
<path d="M290 91 c-8 -6 -18 -7 -24 -4 -5 3 -6 1 -3 -4 4 -6 17 -13 30 -15 20
-4 23 -1 19 14 -2 10 -5 18 -6 18 0 0 -8 -4 -16 -9z"/>
</g>
</svg>
